<svg width="129" height="129" viewBox="0 0 129 129" fill="none" xmlns="http://www.w3.org/2000/svg">
<ellipse cx="64.5499" cy="64.6205" rx="64.1485" ry="64" fill="#343CED"/>
<path d="M96.0898 83.0051C95.3861 83.9997 94.6363 84.9673 93.8457 85.8938C93.0551 86.8248 92.2276 87.7151 91.3594 88.5735C90.4957 89.4318 89.5908 90.2494 88.6494 91.0305C87.7125 91.8117 86.7388 92.5475 85.7334 93.2424C84.7325 93.9418 83.6999 94.5967 82.6396 95.2053C81.584 95.8093 80.4962 96.3678 79.3857 96.8811C78.2798 97.3943 77.1504 97.8574 75.9941 98.2708C74.8518 98.6885 73.6821 99.0518 72.4941 99.3606C71.3196 99.674 70.1261 99.9378 68.915 100.147C67.7178 100.356 66.5066 100.515 65.2773 100.615C64.071 100.719 62.8509 100.774 61.6172 100.774C60.3832 100.774 59.1626 100.719 57.9561 100.615C56.7268 100.515 55.5111 100.356 54.3184 100.147C53.1073 99.9378 51.9101 99.6739 50.7402 99.3606L53.4316 89.3782C54.3137 89.6189 55.2146 89.8136 56.124 89.968C57.0242 90.1269 57.9383 90.2453 58.8613 90.3225C59.7707 90.3997 60.6895 90.4407 61.6172 90.4407C62.5449 90.4407 63.4636 90.3997 64.373 90.3225C65.2961 90.2453 66.2101 90.127 67.1104 89.968C68.0196 89.8136 68.9199 89.6188 69.8018 89.3782C70.6975 89.1465 71.5757 88.8732 72.4395 88.5598C73.3076 88.251 74.1577 87.9019 74.9893 87.5159C75.8255 87.1299 76.6434 86.7118 77.4385 86.2532C78.2382 85.799 79.0204 85.3039 79.7744 84.7815C80.533 84.2593 81.2641 83.7052 81.9678 83.1194C82.6761 82.5335 83.3572 81.9157 84.0107 81.2708C84.6643 80.6213 85.2907 79.9536 85.8848 79.2542C86.4789 78.5547 87.0451 77.8277 87.5752 77.0784L96.0898 83.0051ZM86.7725 34.9954L80.0264 43.5754C83.5087 47.7136 85.6055 53.0431 85.6055 58.8596C85.6054 72.0259 74.8654 82.6995 61.6172 82.6995C48.3692 82.6992 37.63 72.0257 37.6299 58.8596C37.6299 45.6935 48.3692 35.02 61.6172 35.0198C65.2307 35.0198 68.6572 35.8155 71.7305 37.2375L78.5273 28.593L86.7725 34.9954ZM61.6172 45.2581C54.059 45.2583 47.9316 51.3481 47.9316 58.8596C47.9317 66.371 54.0591 72.46 61.6172 72.4602C69.1755 72.4602 75.3036 66.3712 75.3037 58.8596C75.3037 51.348 69.1756 45.2581 61.6172 45.2581Z" fill="white"/>
</svg>
